# xmcd
#
# Track frame offsets: 
#        183
#        9165
#        20463
#        28640
#        36910
#        52435
#        60070
#        65763
#        71435
#        78740
#        84250
#        90363
#        96513
#        106463
#        112320
#        118698
#        128013
#        135413
#        146570
#        157788
#        168948
#        181100
#
# Disc length: 2546 seconds
#
# Revision: 1
# Processed by: cddbd v1.5.2PL0 Copyright (c) Steve Scherf et al.
# Submitted via: ExactAudioCopy v0.95b4
#
DISCID=1f09f016
DTITLE=Lefty Frizzell - Life's Like Poetry - Disc 12 of 12
DYEAR=1992
DGENRE=Country
TTITLE0=I'll Make It up to You (Abe Mulkey Demo - Mid 1960's)
TTITLE1=It's Hard to Please You (Abe Mulkey Demo - Mid 1960's)
TTITLE2=Too Much Love (Abe Mulkey Demo - Mid 1960's)
TTITLE3=My Abandoned Heart (Abe Mulkey Demo - Mid 1960's)
TTITLE4=Wait Till I'm Asleep (Abe Mulkey Demo - Mid 1960's)
TTITLE5=Not This Time (Abe Mulkey Demo - Mid 1960's) - Lefty Frizzell 
TTITLE5=& Abe Mulkey
TTITLE6=Not This Time (Abe Mulkey Demo - Mid 1960's)
TTITLE7=Why Didn't You Tell Me Our Love Was Wrong (Demo 1 - 1950's)
TTITLE8=Forever (And Always) (Demo - 1950's)
TTITLE9=Why Didn't You Tell Me Our Love Was Wrong (Demo 2 - 1950's)
TTITLE10=Please Don't Stay Away So Long (Demo 1 - 1950's)
TTITLE11=Please Don't Stay Away So Long (Demo 2 - 1950's)
TTITLE12=You Have Never Been Known to Be Wrong (Demo - 1950's)
TTITLE13=The Reason Why My Heart's in Misery (Demo - 1950's)
TTITLE14=Blue Yodel (Demo - 1950's)
TTITLE15=Just Little Things Like That (Demo - 1950's)
TTITLE16=I Love You So (Demo - 1950's)
TTITLE17=A Fool's Advice (Demo - 1950's)
TTITLE18=When Me and My Baby Go Steppin' Out (Demo 1 - 1950's)
TTITLE19=When Me and My Baby Go Steppin' Out (Demo 2 - 1950's)
TTITLE20=Lullaby Yodel (Demo - 1950's)
TTITLE21=Brakeman's Blues (Demo - 1950's)
EXTD=Life's Like Poetry - Disc 12 of 12\n© 1992 Bear Family Records
EXTT0=
EXTT1=
EXTT2=
EXTT3=
EXTT4=
EXTT5=
EXTT6=
EXTT7=
EXTT8=
EXTT9=
EXTT10=
EXTT11=
EXTT12=
EXTT13=
EXTT14=
EXTT15=
EXTT16=
EXTT17=
EXTT18=
EXTT19=
EXTT20=
EXTT21=
PLAYORDER=
